<?xml version="1.0" encoding="UTF-8"?>
<svg version="1.1" xmlns="http://www.w3.org/2000/svg" width="91" height="91">
<path d="M0 0 C2.51296315 2.65084254 2.8470942 4.29915567 2.90209961 7.91088867 C2.87897705 8.62607666 2.85585449 9.34126465 2.83203125 10.078125 C2.80991577 11.20214722 2.80991577 11.20214722 2.78735352 12.34887695 C1.8951175 33.14081213 -9.81431076 53.21034822 -24.73046875 67.203125 C-37.92266001 78.42168135 -37.92266001 78.42168135 -43.7890625 78.23046875 C-49.28357091 76.57997273 -53.35825827 72.85981215 -57.79296875 69.328125 C-58.58316406 68.70550781 -59.37335937 68.08289063 -60.1875 67.44140625 C-77.15337122 53.26851558 -86.37752311 32.32883241 -88.85546875 10.703125 C-89.10540092 4.85602763 -89.10540092 4.85602763 -86.98046875 1.265625 C-60.9204851 -14.57475722 -26.5163301 -15.87271228 0 0 Z M-83.79296875 5.328125 C-82.58132731 20.26567472 -79.68632148 34.81425436 -70.79296875 47.328125 C-69.80296875 47.658125 -68.81296875 47.988125 -67.79296875 48.328125 C-67.40818359 47.54888672 -67.40818359 47.54888672 -67.015625 46.75390625 C-63.73749313 40.782629 -60.07079653 37.90651855 -53.79296875 35.328125 C-44.4702793 32.74950877 -34.90072804 34.12650462 -26.16796875 37.890625 C-21.72249309 40.5579104 -19.34881514 44.94667405 -16.79296875 49.328125 C-13.54856005 45.57744593 -11.28038505 41.68910729 -9.23046875 37.203125 C-8.9267334 36.54006348 -8.62299805 35.87700195 -8.31005859 35.19384766 C-3.9089762 25.34788213 -2.28942435 16.0960758 -1.79296875 5.328125 C-27.54895204 -8.59402813 -58.18671331 -10.86406594 -83.79296875 5.328125 Z " fill="#06C066" transform="translate(88.79296875,10.671875)"/>
<path d="M0 0 C2.51296315 2.65084254 2.8470942 4.29915567 2.90209961 7.91088867 C2.87897705 8.62607666 2.85585449 9.34126465 2.83203125 10.078125 C2.80991577 11.20214722 2.80991577 11.20214722 2.78735352 12.34887695 C1.8951175 33.14081213 -9.81431076 53.21034822 -24.73046875 67.203125 C-37.92266001 78.42168135 -37.92266001 78.42168135 -43.7890625 78.23046875 C-49.28357091 76.57997273 -53.35825827 72.85981215 -57.79296875 69.328125 C-58.58316406 68.70550781 -59.37335937 68.08289063 -60.1875 67.44140625 C-77.15337122 53.26851558 -86.37752311 32.32883241 -88.85546875 10.703125 C-89.10540092 4.85602763 -89.10540092 4.85602763 -86.98046875 1.265625 C-60.9204851 -14.57475722 -26.5163301 -15.87271228 0 0 Z M-83.79296875 5.328125 C-81.93909263 28.18337392 -74.14433216 48.80783591 -56.79296875 64.328125 C-52.76505461 67.74274939 -48.61774586 71.14564193 -43.79296875 73.328125 C-32.8919358 70.98381684 -22.27072492 58.97606828 -15.79296875 50.328125 C-14.31015678 47.93843579 -13.03282126 45.47625141 -11.79296875 42.953125 C-11.28141235 41.91418091 -11.28141235 41.91418091 -10.75952148 40.85424805 C-5.2930031 29.40828104 -2.03369448 18.10847272 -1.79296875 5.328125 C-27.54895204 -8.59402813 -58.18671331 -10.86406594 -83.79296875 5.328125 Z " fill="#2C9A65" transform="translate(88.79296875,10.671875)"/>
<path d="M0 0 C4.75982924 2.62772498 7.04616381 6.26349144 8.75 11.375 C9.28610751 17.7010686 8.46637861 22.1372289 4.75 27.375 C0.61863149 31.21127076 -3.30976647 32.13534223 -8.7890625 32.47265625 C-13.91604346 32.26920462 -17.22910633 30.23708799 -21.0625 27 C-24.64587729 22.69994725 -25.73382028 19.16037041 -25.5625 13.49609375 C-24.7606625 8.05362173 -22.4498163 4.32995583 -18.1875 0.9375 C-12.08602658 -2.30796459 -6.30792052 -2.84151186 0 0 Z " fill="#0EC26C" transform="translate(54.25,10.625)"/>
<path d="M0 0 C0.66 0.33 1.32 0.66 2 1 C-0.31 3.31 -2.62 5.62 -5 8 C-5 5 -5 5 -2.5 2.3125 C-1.675 1.549375 -0.85 0.78625 0 0 Z " fill="#5DD69C" transform="translate(37,11)"/>
</svg>
