<?xml version="1.0" encoding="UTF-8"?>
<svg version="1.1" xmlns="http://www.w3.org/2000/svg" width="333" height="333">
<path d="M0 0 C0.92127686 -0.00459229 1.84255371 -0.00918457 2.79174805 -0.01391602 C19.83650504 0.02400504 19.83650504 0.02400504 21.9375 2.125 C23.62971106 2.46947378 25.33292648 2.7602476 27.0390625 3.02734375 C28.08707031 3.19556641 29.13507813 3.36378906 30.21484375 3.53710938 C32.42314219 3.88368597 34.63147479 4.23004492 36.83984375 4.57617188 C42.33740931 5.45887013 47.63060562 6.42953088 52.9375 8.125 C52.9375 8.785 52.9375 9.445 52.9375 10.125 C54.113125 10.24875 54.113125 10.24875 55.3125 10.375 C60.115145 11.36865069 64.43559489 13.21213518 68.9375 15.125 C68.9375 15.785 68.9375 16.445 68.9375 17.125 C69.783125 17.33125 70.62875 17.5375 71.5 17.75 C75.84212946 19.48685179 78.52522057 22.00189679 81.9375 25.125 C82.5665625 25.640625 83.195625 26.15625 83.84375 26.6875 C89.69625122 31.51813593 94.26639482 37.17197497 98.9375 43.125 C99.63875 43.97578125 100.34 44.8265625 101.0625 45.703125 C102.71901727 47.84279314 103.99313326 49.83282921 105.1875 52.25 C105.69023438 53.24386719 105.69023438 53.24386719 106.203125 54.2578125 C106.9375 56.125 106.9375 56.125 106.9375 59.125 C107.5975 59.125 108.2575 59.125 108.9375 59.125 C118.09140127 84.234911 122.61932034 110.26135786 112.9375 136.125 C112.67324219 136.95128906 112.40898437 137.77757812 112.13671875 138.62890625 C109.45411922 146.74761057 105.32403028 153.84318532 100.9375 161.125 C100.42316406 162.00542969 99.90882813 162.88585937 99.37890625 163.79296875 C98.29527999 165.60973087 97.12700441 167.3757288 95.9375 169.125 C95.2775 169.125 94.6175 169.125 93.9375 169.125 C93.628125 170.2078125 93.628125 170.2078125 93.3125 171.3125 C91.82611579 174.35283135 90.09061346 175.82976043 87.44140625 177.87890625 C85.74044126 179.20128438 85.74044126 179.20128438 84 181.5625 C81.78842259 184.31021739 79.41983637 186.4159792 76.7109375 188.65625 C75.16607003 189.93569971 73.67174067 191.2756903 72.1875 192.625 C64.00834619 199.3092693 54.23884994 202.62623959 44.3671875 205.92578125 C41.14319548 206.77460789 41.14319548 206.77460789 39.9375 208.125 C37.58762738 208.36027773 35.23193961 208.53886417 32.875 208.6875 C31.58464844 208.77128906 30.29429687 208.85507813 28.96484375 208.94140625 C27.96582031 209.00199219 26.96679688 209.06257812 25.9375 209.125 C25.9375 204.7967809 26.4475339 203.86047725 28.8125 200.4375 C29.34617188 199.64988281 29.87984375 198.86226562 30.4296875 198.05078125 C31.9375 196.125 31.9375 196.125 33.9375 195.125 C38.79838925 187.65548104 41.89078238 179.44906778 44.9375 171.125 C45.2365625 170.41730469 45.535625 169.70960938 45.84375 168.98046875 C52.50866491 153.15129584 51.11791295 134.1891183 44.875 118.5 C44.23652478 117.03843023 43.59090732 115.57995556 42.9375 114.125 C42.5971875 113.24070312 42.256875 112.35640625 41.90625 111.4453125 C40.87897062 108.9848127 39.83436396 107.9459894 37.9375 106.125 C36.90392853 104.47894174 35.89689668 102.81536558 34.9375 101.125 C30.85371717 101.86750597 26.91810777 102.95423301 22.9375 104.125 C22.9375 104.785 22.9375 105.445 22.9375 106.125 C21.67058493 106.79908308 20.39879251 107.46400497 19.125 108.125 C18.41730469 108.49625 17.70960938 108.8675 16.98046875 109.25 C14.9375 110.125 14.9375 110.125 11.9375 110.125 C11.710625 110.723125 11.48375 111.32125 11.25 111.9375 C9.9375 114.125 9.9375 114.125 7.625 115.5 C4.85091506 117.17735368 3.19365402 119.04710371 1.19140625 121.5703125 C-1.28175052 124.63671872 -3.72267529 127.492305 -7.3125 129.1875 C-7.89 129.496875 -8.4675 129.80625 -9.0625 130.125 C-9.19914063 130.71410156 -9.33578125 131.30320313 -9.4765625 131.91015625 C-10.20167091 134.65106603 -11.47219526 136.24625879 -13.1875 138.5 C-19.62520325 147.48099342 -24.45850681 157.36182815 -27.0625 168.125 C-27.7225 168.125 -28.3825 168.125 -29.0625 168.125 C-29.12308594 168.76566406 -29.18367187 169.40632812 -29.24609375 170.06640625 C-29.32988281 170.93136719 -29.41367188 171.79632813 -29.5 172.6875 C-29.58121094 173.53441406 -29.66242188 174.38132813 -29.74609375 175.25390625 C-29.96745261 177.26253293 -30.25291614 179.26465479 -30.5859375 181.2578125 C-31.21116868 186.33140979 -31.24668589 191.3304503 -31.25 196.4375 C-31.26224609 197.41912109 -31.27449219 198.40074219 -31.28710938 199.41210938 C-31.29849287 205.14559615 -30.81177468 210.40702103 -29.50561523 215.99438477 C-28.93694724 218.72869088 -28.91609185 221.34324506 -29.0625 224.125 C-33.40594694 223.59663794 -35.76807129 222.13525668 -39.125 219.375 C-40.37990234 218.36179688 -40.37990234 218.36179688 -41.66015625 217.328125 C-44.10783595 215.08342362 -46.12819993 212.82319225 -48.0625 210.125 C-48.0625 209.465 -48.0625 208.805 -48.0625 208.125 C-48.7225 208.125 -49.3825 208.125 -50.0625 208.125 C-51.3515625 206.4453125 -51.3515625 206.4453125 -52.6875 204.25 C-53.13351563 203.53070313 -53.57953125 202.81140625 -54.0390625 202.0703125 C-55.0625 200.125 -55.0625 200.125 -55.0625 198.125 C-55.7225 198.125 -56.3825 198.125 -57.0625 198.125 C-61.76328717 189.31762628 -65.45529925 180.81062894 -68.0625 171.125 C-68.33835937 170.25488281 -68.61421875 169.38476562 -68.8984375 168.48828125 C-72.07641705 157.71146943 -72.30895841 146.27795666 -73.0625 135.125 C-73.7225 136.115 -74.3825 137.105 -75.0625 138.125 C-75.7225 138.125 -76.3825 138.125 -77.0625 138.125 C-77.19011719 138.70765625 -77.31773438 139.2903125 -77.44921875 139.890625 C-78.05046834 142.08116491 -78.8315552 143.8629391 -79.875 145.875 C-80.23464844 146.57882813 -80.59429687 147.28265625 -80.96484375 148.0078125 C-81.64301696 149.31589036 -82.32244573 150.62331919 -83.00390625 151.9296875 C-84.05569089 153.98044751 -85.06480369 156.04732316 -86.0625 158.125 C-86.55105469 159.13304687 -87.03960937 160.14109375 -87.54296875 161.1796875 C-94.59505219 176.53755809 -96.56180969 188.09448573 -90.7734375 204.22509766 C-89.3740362 207.96484384 -87.8808608 211.57025368 -86.0625 215.125 C-85.76859375 215.77082031 -85.4746875 216.41664063 -85.171875 217.08203125 C-82.10082158 223.67959093 -77.80142288 229.40691218 -73.5 235.24609375 C-70.0625 239.94335937 -70.0625 239.94335937 -70.0625 242.125 C-69.1653125 242.5271875 -69.1653125 242.5271875 -68.25 242.9375 C-66.06402146 244.12417406 -64.64917406 245.22099113 -63.0625 247.125 C-63.0625 247.785 -63.0625 248.445 -63.0625 249.125 C-62.4953125 249.3828125 -61.928125 249.640625 -61.34375 249.90625 C-57.99864283 251.69336205 -55.22280515 254.09132872 -52.28125 256.46875 C-50.2652264 257.97366902 -48.34600697 259.08704229 -46.0625 260.125 C-46.0625 260.785 -46.0625 261.445 -46.0625 262.125 C-45.47082031 262.31835938 -44.87914063 262.51171875 -44.26953125 262.7109375 C-40.1478355 264.06914719 -36.0674476 265.44550585 -32.0625 267.125 C-32.0625 267.785 -32.0625 268.445 -32.0625 269.125 C-30.2371875 269.5271875 -30.2371875 269.5271875 -28.375 269.9375 C-26.60407475 270.33292191 -24.83325464 270.72881479 -23.0625 271.125 C-21.92167969 271.37765625 -20.78085938 271.6303125 -19.60546875 271.890625 C-18.43628906 272.15359375 -17.26710937 272.4165625 -16.0625 272.6875 C-14.391875 273.06068359 -14.391875 273.06068359 -12.6875 273.44140625 C-10.0625 274.125 -10.0625 274.125 -9.0625 275.125 C5.86121568 277.28854397 20.55934552 277.83330122 35.5625 276.25 C36.30894775 276.17168945 37.05539551 276.09337891 37.82446289 276.01269531 C42.1019841 275.50608928 45.86758336 274.59663873 49.9375 273.125 C51.13503906 272.78082031 52.33257812 272.43664062 53.56640625 272.08203125 C64.3460077 268.98069473 73.94618438 264.90578687 83.0625 258.1875 C85.9375 256.125 85.9375 256.125 88.9375 256.125 C89.2778125 255.2278125 89.2778125 255.2278125 89.625 254.3125 C91.29649637 251.52667272 93.1431404 250.74962768 95.9375 249.125 C99.44080157 245.89118317 102.48958732 242.35475302 105.5078125 238.67578125 C106.9375 237.125 106.9375 237.125 109.9375 235.125 C111.14232939 233.4070354 111.14232939 233.4070354 112.125 231.5 C112.723125 230.38625 113.32125 229.2725 113.9375 228.125 C114.5975 228.125 115.2575 228.125 115.9375 228.125 C116.205625 227.403125 116.47375 226.68125 116.75 225.9375 C117.93651362 223.12733617 119.21235639 220.64083443 120.9375 218.125 C121.5975 218.125 122.2575 218.125 122.9375 218.125 C123.164375 217.3 123.39125 216.475 123.625 215.625 C124.6920546 212.77952105 125.67299343 210.85696071 127.3125 208.375 C130.23899675 203.89407323 132.10048226 199.13318243 133.9375 194.125 C134.5975 194.125 135.2575 194.125 135.9375 194.125 C136.06253906 193.11695313 136.18757813 192.10890625 136.31640625 191.0703125 C136.91692532 187.2556945 137.7961227 183.70482394 138.875 180 C139.21402344 178.82179687 139.55304688 177.64359375 139.90234375 176.4296875 C140.9375 173.125 140.9375 173.125 141.96875 170.73046875 C143.32572697 167.0808573 143.88722147 163.3980397 144.5 159.5625 C144.68852539 158.45938477 144.68852539 158.45938477 144.88085938 157.33398438 C148.08945454 137.76323376 148.57928903 117.09580542 144.59375 97.63671875 C144.04079463 94.67774922 143.79858603 92.11743834 143.9375 89.125 C145.2575 89.455 146.5775 89.785 147.9375 90.125 C147.9375 91.115 147.9375 92.105 147.9375 93.125 C148.5975 93.125 149.2575 93.125 149.9375 93.125 C150.77669398 95.39382087 151.60901724 97.66477027 152.4375 99.9375 C152.79521484 100.90139648 152.79521484 100.90139648 153.16015625 101.88476562 C154.20818746 104.77433739 154.9375 107.02576061 154.9375 110.125 C155.5975 110.125 156.2575 110.125 156.9375 110.125 C157.78107963 113.184771 158.6105202 116.2482046 159.4375 119.3125 C159.67597656 120.17681641 159.91445313 121.04113281 160.16015625 121.93164062 C160.49853516 123.19331055 160.49853516 123.19331055 160.84375 124.48046875 C161.05322266 125.25028076 161.26269531 126.02009277 161.47851562 126.81323242 C161.97288729 129.30323523 162.01583519 131.59281499 161.9375 134.125 C162.5975 134.125 163.2575 134.125 163.9375 134.125 C167.17336491 155.70706332 170.65281847 185.55062317 161.9375 206.125 C160.99020316 209.37696937 160.15408094 212.65680219 159.3125 215.9375 C159.08304687 216.82115234 158.85359375 217.70480469 158.6171875 218.61523438 C158.05437205 220.7844189 157.49457066 222.95433439 156.9375 225.125 C156.2775 225.125 155.6175 225.125 154.9375 225.125 C154.855 225.90875 154.7725 226.6925 154.6875 227.5 C153.17375447 234.81643675 150.23159555 241.0301547 145.9375 247.125 C144.90819953 249.11007948 143.89886071 251.10614251 142.9375 253.125 C142.2775 253.125 141.6175 253.125 140.9375 253.125 C140.89625 253.785 140.855 254.445 140.8125 255.125 C139.73135001 258.83179995 137.86192888 261.12811649 135.4921875 264.1328125 C134.16088048 265.83875868 132.94246339 267.63176973 131.75 269.4375 C130.24227965 271.67308534 128.86027679 273.28233891 126.9375 275.125 C126.31875 275.90875 125.7 276.6925 125.0625 277.5 C122.8417785 280.2432442 120.46293996 282.66115614 117.9375 285.125 C116.761875 286.3625 116.761875 286.3625 115.5625 287.625 C113.50436229 289.58513115 111.63054549 291.09506119 109.3125 292.6875 C106.57150576 294.57193354 104.90871988 296.4369729 102.9375 299.125 C101.30566893 300.18089069 99.62957001 301.1686126 97.9375 302.125 C95.62352262 303.70974859 93.3196028 305.30751835 91.0234375 306.91796875 C88.9375 308.125 88.9375 308.125 85.9375 308.125 C85.9375 308.785 85.9375 309.445 85.9375 310.125 C62.55997839 322.125 62.55997839 322.125 56.9375 322.125 C56.9375 322.785 56.9375 323.445 56.9375 324.125 C49.32135089 326.41540396 41.81424196 328.50191768 33.94921875 329.73046875 C31.94780342 329.92876138 31.94780342 329.92876138 30.9375 331.125 C9.21330513 335.69675837 -16.73414492 335.35875723 -38.0625 329.125 C-41.53530965 328.22439611 -45.01754747 327.36246485 -48.5 326.5 C-49.42232422 326.27054687 -50.34464844 326.04109375 -51.29492188 325.8046875 C-53.55051514 325.24371094 -55.80637699 324.68384151 -58.0625 324.125 C-58.0625 323.465 -58.0625 322.805 -58.0625 322.125 C-58.72636719 321.93164062 -59.39023438 321.73828125 -60.07421875 321.5390625 C-68.84457381 318.95276801 -68.84457381 318.95276801 -73.0625 317.125 C-73.0625 316.465 -73.0625 315.805 -73.0625 315.125 C-74.279375 314.795 -75.49625 314.465 -76.75 314.125 C-86.44753509 310.8975869 -95.1441275 304.48149169 -103.0625 298.125 C-103.87460938 297.47917969 -103.87460938 297.47917969 -104.703125 296.8203125 C-108.03438051 294.11156433 -111.02991742 291.15758258 -114.0625 288.125 C-115.031875 287.34125 -116.00125 286.5575 -117 285.75 C-120.47296368 282.91091915 -123.23766587 279.59256325 -126.0625 276.125 C-126.84625 275.196875 -127.63 274.26875 -128.4375 273.3125 C-130.0625 271.125 -130.0625 271.125 -130.0625 269.125 C-130.7225 269.125 -131.3825 269.125 -132.0625 269.125 C-136.0625 263.71323529 -136.0625 263.71323529 -136.0625 261.125 C-136.7225 261.125 -137.3825 261.125 -138.0625 261.125 C-146.06295088 250.4489885 -157.61804923 231.74803326 -157.0625 218.125 C-157.7225 218.125 -158.3825 218.125 -159.0625 218.125 C-159.884293 214.81473629 -160.69318483 211.50144329 -161.5 208.1875 C-161.73009766 207.26130859 -161.96019531 206.33511719 -162.19726562 205.38085938 C-163.59286581 199.61642383 -164.45935143 194.02180203 -165.0625 188.125 C-165.3925 187.465 -165.7225 186.805 -166.0625 186.125 C-166.14941001 183.28070643 -166.17803802 180.46120824 -166.16015625 177.6171875 C-166.1587413 176.77656769 -166.15732635 175.93594788 -166.15586853 175.06985474 C-166.15026237 172.37986725 -166.13770886 169.68996241 -166.125 167 C-166.11998579 165.17838662 -166.11542275 163.35677193 -166.11132812 161.53515625 C-166.10029094 157.06507223 -166.0830222 152.59505014 -166.0625 148.125 C-165.4025 148.125 -164.7425 148.125 -164.0625 148.125 C-164.09150391 147.47233154 -164.12050781 146.81966309 -164.15039062 146.1472168 C-164.3336611 138.74636246 -163.26711603 132.11992268 -161.5625 124.9375 C-161.32402344 123.89013672 -161.08554688 122.84277344 -160.83984375 121.76367188 C-160.25791385 119.2148189 -159.66538048 116.66896324 -159.0625 114.125 C-158.4025 114.125 -157.7425 114.125 -157.0625 114.125 C-156.98 113.17625 -156.8975 112.2275 -156.8125 111.25 C-154.98809974 99.03868095 -145.55996624 79.45060455 -136.69921875 70.79296875 C-133.65123922 67.6867939 -131.35118825 63.90100426 -128.91015625 60.30664062 C-126.31148685 56.57552355 -123.77121554 53.84141707 -120.0625 51.125 C-117.6114659 48.73524175 -115.22734204 46.29926159 -112.875 43.8125 C-107.09584599 38.29019728 -100.77310351 33.45893143 -94.0625 29.125 C-92.97388672 28.32449219 -92.97388672 28.32449219 -91.86328125 27.5078125 C-77.67046674 17.125 -77.67046674 17.125 -71.0625 17.125 C-71.0625 16.465 -71.0625 15.805 -71.0625 15.125 C-68.81517898 14.28375684 -66.56511215 13.45185168 -64.3125 12.625 C-63.67828125 12.38652344 -63.0440625 12.14804688 -62.390625 11.90234375 C-59.02963393 10.67698242 -56.69378413 10.125 -53.0625 10.125 C-53.0625 9.465 -53.0625 8.805 -53.0625 8.125 C-43.95066871 5.68728929 -35.03822187 3.65081989 -25.66015625 2.51953125 C-23.13911761 2.39925498 -23.13911761 2.39925498 -22.0625 1.125 C-14.83084143 -0.19726714 -7.32504626 0.02027397 0 0 Z " fill="#4AB482" transform="translate(166.0625,-0.125)"/>
<path d="M0 0 C0.92127686 -0.00459229 1.84255371 -0.00918457 2.79174805 -0.01391602 C19.83650504 0.02400504 19.83650504 0.02400504 21.9375 2.125 C23.62971106 2.46947378 25.33292648 2.7602476 27.0390625 3.02734375 C28.08707031 3.19556641 29.13507813 3.36378906 30.21484375 3.53710938 C32.42314219 3.88368597 34.63147479 4.23004492 36.83984375 4.57617188 C42.33740931 5.45887013 47.63060562 6.42953088 52.9375 8.125 C52.9375 8.785 52.9375 9.445 52.9375 10.125 C54.113125 10.24875 54.113125 10.24875 55.3125 10.375 C60.115145 11.36865069 64.43559489 13.21213518 68.9375 15.125 C68.9375 15.785 68.9375 16.445 68.9375 17.125 C69.783125 17.33125 70.62875 17.5375 71.5 17.75 C75.84212946 19.48685179 78.52522057 22.00189679 81.9375 25.125 C82.5665625 25.640625 83.195625 26.15625 83.84375 26.6875 C89.69625122 31.51813593 94.26639482 37.17197497 98.9375 43.125 C99.63875 43.97578125 100.34 44.8265625 101.0625 45.703125 C102.71901727 47.84279314 103.99313326 49.83282921 105.1875 52.25 C105.69023438 53.24386719 105.69023438 53.24386719 106.203125 54.2578125 C106.9375 56.125 106.9375 56.125 106.9375 59.125 C107.5975 59.125 108.2575 59.125 108.9375 59.125 C118.09140127 84.234911 122.61932034 110.26135786 112.9375 136.125 C112.67324219 136.95128906 112.40898437 137.77757812 112.13671875 138.62890625 C109.45411922 146.74761057 105.32403028 153.84318532 100.9375 161.125 C100.42316406 162.00542969 99.90882813 162.88585937 99.37890625 163.79296875 C98.29527999 165.60973087 97.12700441 167.3757288 95.9375 169.125 C95.2775 169.125 94.6175 169.125 93.9375 169.125 C93.628125 170.2078125 93.628125 170.2078125 93.3125 171.3125 C91.82611579 174.35283135 90.09061346 175.82976043 87.44140625 177.87890625 C85.74044126 179.20128438 85.74044126 179.20128438 84 181.5625 C81.78842259 184.31021739 79.41983637 186.4159792 76.7109375 188.65625 C75.16607003 189.93569971 73.67174067 191.2756903 72.1875 192.625 C64.00834619 199.3092693 54.23884994 202.62623959 44.3671875 205.92578125 C41.14319548 206.77460789 41.14319548 206.77460789 39.9375 208.125 C37.58762738 208.36027773 35.23193961 208.53886417 32.875 208.6875 C31.58464844 208.77128906 30.29429687 208.85507813 28.96484375 208.94140625 C27.96582031 209.00199219 26.96679688 209.06257812 25.9375 209.125 C25.9375 204.7967809 26.4475339 203.86047725 28.8125 200.4375 C29.34617188 199.64988281 29.87984375 198.86226562 30.4296875 198.05078125 C31.9375 196.125 31.9375 196.125 33.9375 195.125 C38.79838925 187.65548104 41.89078238 179.44906778 44.9375 171.125 C45.2365625 170.41730469 45.535625 169.70960938 45.84375 168.98046875 C53.18664728 151.54108771 50.59046615 129.63601103 44 112.3125 C43.34876022 110.89938511 42.66340526 109.50125161 41.9375 108.125 C41.58042969 107.42632812 41.22335938 106.72765625 40.85546875 106.0078125 C38.21759781 101.33198776 34.96457459 98.11286202 30.84375 94.70703125 C28.38342829 92.6651659 26.19756496 90.38506496 23.9375 88.125 C18.56928772 82.98069318 13.13563062 79.26334876 6.5 75.9375 C5.70529297 75.52564453 4.91058594 75.11378906 4.09179688 74.68945312 C-6.69074746 69.14884397 -6.69074746 69.14884397 -18.1875 65.4375 C-19.13882813 65.20675781 -20.09015625 64.97601563 -21.0703125 64.73828125 C-28.61642358 63.19162402 -35.88365583 62.94199055 -43.5625 62.9375 C-45.21572266 62.91913086 -45.21572266 62.91913086 -46.90234375 62.90039062 C-52.72457394 62.88990642 -57.56138165 63.22048499 -63.0625 65.125 C-64.196875 65.269375 -65.33125 65.41375 -66.5 65.5625 C-70.66946205 66.22083611 -74.16981297 67.54803555 -78.0625 69.125 C-79.15304688 69.52332031 -79.15304688 69.52332031 -80.265625 69.9296875 C-115.51932932 83.12064309 -141.37163762 109.37411038 -157.0625 143.125 C-158.47310978 146.43163528 -159.81218883 149.75459597 -161.0625 153.125 C-161.7225 153.125 -162.3825 153.125 -163.0625 153.125 C-163.31183861 145.71496829 -162.36250049 138.8486514 -161.0625 131.5625 C-160.87171875 130.45841797 -160.6809375 129.35433594 -160.484375 128.21679688 C-160.01710111 125.51829016 -159.54301278 122.8211751 -159.0625 120.125 C-158.4025 120.125 -157.7425 120.125 -157.0625 120.125 C-156.835625 118.990625 -156.60875 117.85625 -156.375 116.6875 C-153.63287371 104.53010094 -150.24409759 93.02084625 -144.0625 82.125 C-143.53140625 81.18398437 -143.0003125 80.24296875 -142.453125 79.2734375 C-138.59637443 72.64822736 -138.59637443 72.64822736 -136.69140625 70.78125 C-133.64384687 67.68253255 -131.34806215 63.89640114 -128.91015625 60.30664062 C-126.31148685 56.57552355 -123.77121554 53.84141707 -120.0625 51.125 C-117.6114659 48.73524175 -115.22734204 46.29926159 -112.875 43.8125 C-107.09584599 38.29019728 -100.77310351 33.45893143 -94.0625 29.125 C-92.97388672 28.32449219 -92.97388672 28.32449219 -91.86328125 27.5078125 C-77.67046674 17.125 -77.67046674 17.125 -71.0625 17.125 C-71.0625 16.465 -71.0625 15.805 -71.0625 15.125 C-68.81517898 14.28375684 -66.56511215 13.45185168 -64.3125 12.625 C-63.67828125 12.38652344 -63.0440625 12.14804688 -62.390625 11.90234375 C-59.02963393 10.67698242 -56.69378413 10.125 -53.0625 10.125 C-53.0625 9.465 -53.0625 8.805 -53.0625 8.125 C-43.95066871 5.68728929 -35.03822187 3.65081989 -25.66015625 2.51953125 C-23.13911761 2.39925498 -23.13911761 2.39925498 -22.0625 1.125 C-14.83084143 -0.19726714 -7.32504626 0.02027397 0 0 Z " fill="#E04243" transform="translate(166.0625,-0.125)"/>
<path d="M0 0 C1.98 0.495 1.98 0.495 4 1 C4 1.99 4 2.98 4 4 C4.66 4 5.32 4 6 4 C6.83919398 6.26882087 7.67151724 8.53977027 8.5 10.8125 C8.73847656 11.45509766 8.97695313 12.09769531 9.22265625 12.75976562 C10.27068746 15.64933739 11 17.90076061 11 21 C11.66 21 12.32 21 13 21 C13.84357963 24.059771 14.6730202 27.1232046 15.5 30.1875 C15.85771484 31.48397461 15.85771484 31.48397461 16.22265625 32.80664062 C16.44824219 33.64775391 16.67382812 34.48886719 16.90625 35.35546875 C17.11572266 36.12528076 17.32519531 36.89509277 17.54101562 37.68823242 C18.03538729 40.17823523 18.07833519 42.46781499 18 45 C18.66 45 19.32 45 20 45 C23.23586491 66.58206332 26.71531847 96.42562317 18 117 C17.05270316 120.25196937 16.21658094 123.53180219 15.375 126.8125 C15.14554687 127.69615234 14.91609375 128.57980469 14.6796875 129.49023438 C14.11687205 131.6594189 13.55707066 133.82933439 13 136 C12.34 136 11.68 136 11 136 C10.9175 136.78375 10.835 137.5675 10.75 138.375 C9.23625447 145.69143675 6.29409555 151.9051547 2 158 C0.97069953 159.98507948 -0.03863929 161.98114251 -1 164 C-1.66 164 -2.32 164 -3 164 C-3.04125 164.66 -3.0825 165.32 -3.125 166 C-4.20614999 169.70679995 -6.07557112 172.00311649 -8.4453125 175.0078125 C-9.77661952 176.71375868 -10.99503661 178.50676973 -12.1875 180.3125 C-13.69522035 182.54808534 -15.07722321 184.15733891 -17 186 C-17.928125 187.175625 -17.928125 187.175625 -18.875 188.375 C-21.0957215 191.1182442 -23.47456004 193.53615614 -26 196 C-26.78375 196.825 -27.5675 197.65 -28.375 198.5 C-30.43313771 200.46013115 -32.30695451 201.97006119 -34.625 203.5625 C-37.36599424 205.44693354 -39.02878012 207.3119729 -41 210 C-42.63183107 211.05589069 -44.30792999 212.0436126 -46 213 C-48.31397738 214.58474859 -50.6178972 216.18251835 -52.9140625 217.79296875 C-55 219 -55 219 -58 219 C-58 219.66 -58 220.32 -58 221 C-63.93169624 224.18464019 -69.3895667 226.65343025 -76 228 C-76 227.34 -76 226.68 -76 226 C-75.34 226 -74.68 226 -74 226 C-74 225.34 -74 224.68 -74 224 C-75.22074219 224.33773437 -76.44148437 224.67546875 -77.69921875 225.0234375 C-79.36187886 225.47432838 -81.02464514 225.92482789 -82.6875 226.375 C-83.48478516 226.59671875 -84.28207031 226.8184375 -85.10351562 227.046875 C-96.99330794 230.2425504 -108.64176519 231.38967271 -120.9375 231.375 C-121.60654358 231.37545319 -122.27558716 231.37590637 -122.96490479 231.37637329 C-159.84503012 231.30353529 -193.11142225 217.33678389 -219.16845703 191.26831055 C-236.40312067 173.34681364 -245.17043961 149.68638726 -245.24023438 125.0168457 C-245.24986058 122.96718495 -245.28089825 120.91856344 -245.3125 118.86914062 C-245.37997718 110.20656173 -244.36583266 102.34375298 -242 94 C-241.67 94 -241.34 94 -241 94 C-240.90203125 94.75023437 -240.8040625 95.50046875 -240.703125 96.2734375 C-239.60967907 103.75788634 -238.3318801 111.76665632 -233.52734375 117.87109375 C-230.91066744 121.51837915 -229.7700232 125.80003065 -228.28125 130.00390625 C-227.08153471 132.80933805 -226.21489923 134.02856154 -224 136 C-223.05109037 137.66877211 -222.10460101 139.33910515 -221.18359375 141.0234375 C-219.41980921 143.96889948 -217.30382167 146.61473953 -215.171875 149.30078125 C-214 151 -214 151 -214 153 C-213.401875 153.268125 -212.80375 153.53625 -212.1875 153.8125 C-210.00152146 154.99917406 -208.58667406 156.09599113 -207 158 C-207 158.66 -207 159.32 -207 160 C-206.4328125 160.2578125 -205.865625 160.515625 -205.28125 160.78125 C-201.93614283 162.56836205 -199.16030515 164.96632872 -196.21875 167.34375 C-194.2027264 168.84866902 -192.28350697 169.96204229 -190 171 C-190 171.66 -190 172.32 -190 173 C-189.40832031 173.19335938 -188.81664062 173.38671875 -188.20703125 173.5859375 C-184.0853355 174.94414719 -180.0049476 176.32050585 -176 178 C-176 178.66 -176 179.32 -176 180 C-174.783125 180.268125 -173.56625 180.53625 -172.3125 180.8125 C-170.54157475 181.20792191 -168.77075464 181.60381479 -167 182 C-165.28876953 182.37898438 -165.28876953 182.37898438 -163.54296875 182.765625 C-162.37378906 183.02859375 -161.20460938 183.2915625 -160 183.5625 C-158.88625 183.81128906 -157.7725 184.06007813 -156.625 184.31640625 C-154 185 -154 185 -153 186 C-138.07628432 188.16354397 -123.37815448 188.70830122 -108.375 187.125 C-107.62855225 187.04668945 -106.88210449 186.96837891 -106.11303711 186.88769531 C-101.8355159 186.38108928 -98.06991664 185.47163873 -94 184 C-92.80246094 183.65582031 -91.60492188 183.31164062 -90.37109375 182.95703125 C-79.5914923 179.85569473 -69.99131562 175.78078687 -60.875 169.0625 C-58 167 -58 167 -55 167 C-54.6596875 166.1028125 -54.6596875 166.1028125 -54.3125 165.1875 C-52.64100363 162.40167272 -50.7943596 161.62462768 -48 160 C-44.49669843 156.76618317 -41.44791268 153.22975302 -38.4296875 149.55078125 C-37 148 -37 148 -34 146 C-32.79517061 144.2820354 -32.79517061 144.2820354 -31.8125 142.375 C-31.214375 141.26125 -30.61625 140.1475 -30 139 C-29.34 139 -28.68 139 -28 139 C-27.731875 138.278125 -27.46375 137.55625 -27.1875 136.8125 C-26.00098638 134.00233617 -24.72514361 131.51583443 -23 129 C-22.34 129 -21.68 129 -21 129 C-20.773125 128.175 -20.54625 127.35 -20.3125 126.5 C-19.2454454 123.65452105 -18.26450657 121.73196071 -16.625 119.25 C-13.69850325 114.76907323 -11.83701774 110.00818243 -10 105 C-9.34 105 -8.68 105 -8 105 C-7.87496094 103.99195313 -7.74992188 102.98390625 -7.62109375 101.9453125 C-7.02057468 98.1306945 -6.1413773 94.57982394 -5.0625 90.875 C-4.72347656 89.69679688 -4.38445312 88.51859375 -4.03515625 87.3046875 C-3 84 -3 84 -1.96875 81.60546875 C-0.61177303 77.9558573 -0.05027853 74.2730397 0.5625 70.4375 C0.68818359 69.70208984 0.81386719 68.96667969 0.94335938 68.20898438 C4.15195454 48.63823376 4.64178903 27.97080542 0.65625 8.51171875 C0.10329463 5.55274922 -0.13891397 2.99243834 0 0 Z " fill="#5A328D" transform="translate(310,89)"/>
<path d="M0 0 C1.64684668 3.29369337 -0.21350042 6.4261964 -1.3125 9.75 C-1.6518457 10.80574219 -1.6518457 10.80574219 -1.99804688 11.8828125 C-3.30362706 15.93123981 -4.649149 19.96647307 -6 24 C-6.66 24 -7.32 24 -8 24 C-8.08109009 24.87180908 -8.08109009 24.87180908 -8.16381836 25.76123047 C-8.81844118 32.57011183 -9.66106496 39.34482828 -10.5625 46.125 C-10.70107422 47.176875 -10.83964844 48.22875 -10.98242188 49.3125 C-11.32023051 51.87518619 -11.65944625 54.43767742 -12 57 C-11.34 57 -10.68 57 -10 57 C-10.09087891 57.56283691 -10.18175781 58.12567383 -10.27539062 58.70556641 C-12.05259248 69.88598886 -13.51494231 80.65219717 -13 92 C-15 90 -15 90 -15.22705078 86.28466797 C-15.22673351 84.68713948 -15.21539982 83.08958973 -15.1953125 81.4921875 C-15.1924826 80.65156769 -15.18965271 79.81094788 -15.18673706 78.94485474 C-15.1755243 76.25475954 -15.15041803 73.5649949 -15.125 70.875 C-15.1149716 69.05339022 -15.10584551 67.23177523 -15.09765625 65.41015625 C-15.07558142 60.93997642 -15.04104434 56.47004429 -15 52 C-14.34 52 -13.68 52 -13 52 C-13.02900391 51.34733154 -13.05800781 50.69466309 -13.08789062 50.0222168 C-13.2711611 42.62136246 -12.20461603 35.99492268 -10.5 28.8125 C-10.26152344 27.76513672 -10.02304688 26.71777344 -9.77734375 25.63867188 C-9.19541385 23.0898189 -8.60288048 20.54396324 -8 18 C-7.34 18 -6.68 18 -6 18 C-5.9175 17.05125 -5.835 16.1025 -5.75 15.125 C-5.08784867 10.37309049 -3.46898116 3.46898116 0 0 Z " fill="#F5C79D" transform="translate(15,96)"/>
<path d="M0 0 C4.72065967 1.54269924 9.41664092 3.07794619 14 5 C14 5.66 14 6.32 14 7 C15.8253125 7.4021875 15.8253125 7.4021875 17.6875 7.8125 C19.45842525 8.20792191 21.22924536 8.60381479 23 9 C24.14082031 9.25265625 25.28164062 9.5053125 26.45703125 9.765625 C27.62621094 10.02859375 28.79539063 10.2915625 30 10.5625 C31.11375 10.81128906 32.2275 11.06007813 33.375 11.31640625 C36 12 36 12 37 13 C53.73632418 15.42632425 70.17292699 15.35390243 87 14 C86.67 14.66 86.34 15.32 86 16 C78.85911323 17.15818102 71.72143151 17.19174353 64.5 17.1875 C62.79481201 17.1884668 62.79481201 17.1884668 61.05517578 17.18945312 C51.91759317 17.13260969 43.02224746 16.40737008 34 15 C34 14.34 34 13.68 34 13 C32.783125 12.9175 31.56625 12.835 30.3125 12.75 C23.96369475 12.07049528 18.0349017 10.00541556 12 8 C12 7.34 12 6.68 12 6 C11.38511719 5.79503906 10.77023438 5.59007812 10.13671875 5.37890625 C6.7578125 4.25260417 3.37890625 3.12630208 0 2 C0 1.34 0 0.68 0 0 Z " fill="#D7CAE3" transform="translate(120,262)"/>
<path d="M0 0 C1.98 0.495 1.98 0.495 4 1 C3.81614746 1.88059082 3.63229492 2.76118164 3.44287109 3.66845703 C3.00453017 6.96592132 3.21293641 9.08696752 3.9140625 12.3046875 C5.36212781 20.2336387 5.39214919 28.09611133 5.375 36.125 C5.37578552 36.9058194 5.37657104 37.68663879 5.37738037 38.49111938 C5.3605954 52.49246491 5.15050462 67.52705958 1 81 C0.01 81.495 0.01 81.495 -1 82 C-0.91435791 81.42668945 -0.82871582 80.85337891 -0.74047852 80.26269531 C-0.34389197 77.59236376 0.04681414 74.92120099 0.4375 72.25 C0.57220703 71.34894531 0.70691406 70.44789063 0.84570312 69.51953125 C3.77687161 49.35881141 4.76125191 28.55407366 0.65625 8.51171875 C0.10329463 5.55274922 -0.13891397 2.99243834 0 0 Z " fill="#F2F0F6" transform="translate(310,89)"/>
<path d="M0 0 C0.66 0.33 1.32 0.66 2 1 C7.80926069 18.75051878 3.62800744 39.56076284 -4 56 C-4.6765401 57.66268329 -5.34633748 59.32819034 -6 61 C-6.66 61 -7.32 61 -8 61 C-8.4021875 62.3921875 -8.4021875 62.3921875 -8.8125 63.8125 C-9.91148371 66.76240366 -10.62418561 68.05615186 -13 70 C-12.07550248 65.80848547 -10.16343983 62.27763687 -8.1875 58.5 C1.63932284 39.19372311 3.47219046 21.23616489 0 0 Z " fill="#FADFE3" transform="translate(214,125)"/>
<path d="M0 0 C0.99 0.33 1.98 0.66 3 1 C3.0093457 1.6077124 3.01869141 2.2154248 3.02832031 2.84155273 C3.32135217 18.09213715 4.73377262 31.87206318 9.8125 46.3125 C10.97266479 49.91511697 11.08581335 50.65392213 10 54 C8.2778111 49.01722421 6.61806123 44.01750913 5 39 C4.53980469 37.60201172 4.53980469 37.60201172 4.0703125 36.17578125 C0.96437629 25.46510433 0.74810735 14.07252604 0 3 C-0.99 4.485 -0.99 4.485 -2 6 C-2.66 5.67 -3.32 5.34 -4 5 C-2.25 1.125 -2.25 1.125 0 0 Z " fill="#E5F4ED" transform="translate(93,132)"/>
<path d="M0 0 C1.64684668 3.29369337 -0.21350042 6.4261964 -1.3125 9.75 C-1.6518457 10.80574219 -1.6518457 10.80574219 -1.99804688 11.8828125 C-3.30362706 15.93123981 -4.649149 19.96647307 -6 24 C-6.66 24 -7.32 24 -8 24 C-8.04898437 24.66386719 -8.09796875 25.32773438 -8.1484375 26.01171875 C-8.89103691 34.78207381 -8.89103691 34.78207381 -11 39 C-12.06140282 35.81579155 -11.95892549 34.91540891 -11.22265625 31.76953125 C-11.03896484 30.96708984 -10.85527344 30.16464844 -10.66601562 29.33789062 C-10.46685547 28.50451172 -10.26769531 27.67113281 -10.0625 26.8125 C-9.86720703 25.96751953 -9.67191406 25.12253906 -9.47070312 24.25195312 C-8.98758736 22.166307 -8.49472096 20.08292386 -8 18 C-7.34 18 -6.68 18 -6 18 C-5.9175 17.05125 -5.835 16.1025 -5.75 15.125 C-5.08784867 10.37309049 -3.46898116 3.46898116 0 0 Z " fill="#FCE4D2" transform="translate(15,96)"/>
<path d="M0 0 C0.66 0.33 1.32 0.66 2 1 C-0.79854744 4.29240875 -4.20673275 6.03562946 -8 8 C-8.99 8 -9.98 8 -11 8 C-11 8.66 -11 9.32 -11 10 C-12.59766103 10.86627399 -14.20339944 11.71766465 -15.8125 12.5625 C-16.70582031 13.03816406 -17.59914062 13.51382812 -18.51953125 14.00390625 C-21 15 -21 15 -24 14 C-21.69 12.68 -19.38 11.36 -17 10 C-17.33 9.34 -17.66 8.68 -18 8 C-16.58521865 7.35004703 -15.16808513 6.70521278 -13.75 6.0625 C-12.56664062 5.52302734 -12.56664062 5.52302734 -11.359375 4.97265625 C-9 4 -9 4 -6.8671875 3.47265625 C-4.77413492 3.04269878 -4.77413492 3.04269878 -2.375 1.375 C-1.59125 0.92125 -0.8075 0.4675 0 0 Z " fill="#A8B2C0" transform="translate(263,300)"/>
<path d="M0 0 C5.18328597 6.37942889 9.06942277 14.02028078 11 22 C10.67 22.99 10.34 23.98 10 25 C6 15 6 15 4.95703125 12.26171875 C3.93509342 9.84660854 2.8685661 8.79382346 1 7 C-0.03357147 5.35394174 -1.04060332 3.69036558 -2 2 C-6.08378283 2.74250597 -10.01939223 3.82923301 -14 5 C-10.23363183 0.6059038 -5.65350204 -2.10282698 0 0 Z " fill="#F2E5E7" transform="translate(203,99)"/>
<path d="M0 0 C0.66 0 1.32 0 2 0 C6 8 10 16 14 24 C13.34 24 12.68 24 12 24 C7.67640491 18.11365969 0 7.37593444 0 0 Z " fill="#E2F3E7" transform="translate(16,237)"/>
<path d="M0 0 C0 3.36472501 -0.68209277 4.61432349 -2.3125 7.5 C-2.74175781 8.2734375 -3.17101563 9.046875 -3.61328125 9.84375 C-5 12 -5 12 -6.53125 13.45703125 C-8.47111819 15.49492469 -9.19984171 17.56509694 -10.1875 20.1875 C-10.53167969 21.08855469 -10.87585938 21.98960938 -11.23046875 22.91796875 C-11.48441406 23.60503906 -11.73835938 24.29210937 -12 25 C-12.66 25 -13.32 25 -14 25 C-12.36632879 18.93821997 -10.04496817 14.20278917 -6.421875 9.08203125 C-4.82011295 6.837266 -4.82011295 6.837266 -3.25 3.5 C-2 1 -2 1 0 0 Z " fill="#FCEADD" transform="translate(30,71)"/>
<path d="M0 0 C4.5009071 1.4145708 6.77201886 3.61830547 10 7 C11.76178463 8.55130594 13.55161705 10.06357084 15.3515625 11.5703125 C16.9783852 12.98125352 18.49610471 14.45964664 20 16 C15.28054539 16 12.2933879 13.21500075 8.9375 10.0625 C8.298125 9.381875 7.65875 8.70125 7 8 C6.13375 7.154375 5.2675 6.30875 4.375 5.4375 C2 3 2 3 0 0 Z " fill="#DDEDE4" transform="translate(50,285)"/>
<path d="M0 0 C4.96467562 1.27299375 8.52815953 3.59569455 12.67578125 6.46875 C15.9810463 8.64633638 19.42430937 10.30967352 23 12 C22.01 12.495 22.01 12.495 21 13 C13.5892923 10.02878022 6.31686653 5.89716673 0 1 C0 0.67 0 0.34 0 0 Z " fill="#E3EDE9" transform="translate(70,302)"/>
<path d="M0 0 C0.66 0.33 1.32 0.66 2 1 C-3.40477435 6.61265028 -8.73650684 11.07169983 -16 14 C-16.66 14 -17.32 14 -18 14 C-18 13.34 -18 12.68 -18 12 C-16.93072266 11.45472656 -16.93072266 11.45472656 -15.83984375 10.8984375 C-9.89273526 7.77680586 -4.91098118 4.58358243 0 0 Z " fill="#DDDEE0" transform="translate(243,185)"/>
<path d="M0 0 C5.16462533 5.87698745 7.48233979 11.12178341 7 19 C5.2117698 16.31765469 4.14809618 14.04485923 3 11.0625 C2.03292345 8.55792284 1.09217407 6.17009754 -0.1875 3.80859375 C-0.5896875 2.91333984 -0.5896875 2.91333984 -1 2 C-0.67 1.34 -0.34 0.68 0 0 Z " fill="#E0435F" transform="translate(207,102)"/>
<path d="M0 0 C0.66 0.33 1.32 0.66 2 1 C-3.94 6.94 -9.88 12.88 -16 19 C-16 13.77719767 -11.50919035 10.58625028 -8 7 C-5.39703481 4.58610154 -2.73530762 2.26244859 0 0 Z " fill="#ED824B" transform="translate(57,42)"/>
<path d="M0 0 C0 3 0 3 -1.19335938 4.53393555 C-1.73798828 5.062854 -2.28261719 5.59177246 -2.84375 6.13671875 C-3.72353516 7.00200195 -3.72353516 7.00200195 -4.62109375 7.88476562 C-5.24113281 8.47966797 -5.86117188 9.07457031 -6.5 9.6875 C-7.12003906 10.29400391 -7.74007813 10.90050781 -8.37890625 11.52539062 C-9.91264707 13.02373743 -11.45548198 14.51276493 -13 16 C-13.66 15.67 -14.32 15.34 -15 15 C-12.30273102 11.40364136 -9.53284179 8.75733993 -6 6 C-4.3142876 4.35259924 -2.6436814 2.68933922 -1 1 C-0.67 0.67 -0.34 0.34 0 0 Z " fill="#E9E4F1" transform="translate(276,235)"/>
<path d="M0 0 C-2.68232661 1.78821774 -5.30288961 3.20142604 -8.1875 4.625 C-9.08855469 5.07101562 -9.98960937 5.51703125 -10.91796875 5.9765625 C-11.94857422 6.48316406 -11.94857422 6.48316406 -13 7 C-13 6.34 -13 5.68 -13 5 C-12.34 5 -11.68 5 -11 5 C-11 3.68 -11 2.36 -11 1 C-6.87831311 -0.62950412 -4.29299643 -1.26264601 0 0 Z " fill="#44668E" transform="translate(247,310)"/>
<path d="M0 0 C1.32 0.33 2.64 0.66 4 1 C3.814375 1.825 3.62875 2.65 3.4375 3.5 C2.9225916 7.61926719 3.36507072 10.90823355 4 15 C3.34 15 2.68 15 2 15 C1.66048381 13.43883181 1.32867456 11.87598662 1 10.3125 C0.814375 9.44238281 0.62875 8.57226562 0.4375 7.67578125 C0.01027953 5.06287036 -0.07616201 2.64186962 0 0 Z " fill="#ECE9F1" transform="translate(310,89)"/>
<path d="M0 0 C3.37811612 1.12603871 3.87284731 1.82198624 5.875 4.625 C6.390625 5.33914063 6.90625 6.05328125 7.4375 6.7890625 C7.953125 7.51867187 8.46875 8.24828125 9 9 C9.495 9.68835938 9.99 10.37671875 10.5 11.0859375 C11.67329482 12.71921722 12.83759242 14.358954 14 16 C10.93759697 14.66019868 9.10829099 13.27130227 7 10.6875 C6.49210937 10.06875 5.98421875 9.45 5.4609375 8.8125 C4.97882812 8.214375 4.49671875 7.61625 4 7 C3.21625 6.071875 2.4325 5.14375 1.625 4.1875 C0 2 0 2 0 0 Z " fill="#E4F1E9" transform="translate(36,269)"/>
<path d="M0 0 C4.4609303 1.40200667 6.84677303 3.59783406 10 7 C10.598125 7.556875 11.19625 8.11375 11.8125 8.6875 C13 10 13 10 13 12 C9.34435261 10.46563424 7.01301377 8.25017578 4.25 5.4375 C3.45078125 4.63183594 2.6515625 3.82617188 1.828125 2.99609375 C0 1 0 1 0 0 Z " fill="#F3E0E3" transform="translate(246,25)"/>
<path d="M0 0 C1.70884005 1.62339805 3.37446717 3.29319053 5 5 C5 5.66 5 6.32 5 7 C5.598125 7.268125 6.19625 7.53625 6.8125 7.8125 C8.99847854 8.99917406 10.41332594 10.09599113 12 12 C12 12.66 12 13.32 12 14 C10.0625 13.1875 10.0625 13.1875 8 12 C7.67 11.01 7.34 10.02 7 9 C6.01 8.67 5.02 8.34 4 8 C0 2.62857143 0 2.62857143 0 0 Z " fill="#DAD1E2" transform="translate(91,235)"/>
<path d="M0 0 C0.66 0.66 1.32 1.32 2 2 C4.4148196 2.06039219 4.4148196 2.06039219 7.0625 1.6875 C7.96097656 1.58824219 8.85945312 1.48898438 9.78515625 1.38671875 C11.96721878 1.22442973 11.96721878 1.22442973 13 0 C14.66617115 -0.04063832 16.33388095 -0.042721 18 0 C14.46894039 3.32597281 11.49764465 3.46770164 6.75 3.6875 C5.48671875 3.75324219 4.2234375 3.81898438 2.921875 3.88671875 C1.47554687 3.94279297 1.47554687 3.94279297 0 4 C0 2.68 0 1.36 0 0 Z " fill="#ECEDEE" transform="translate(192,205)"/>
<path d="M0 0 C2.475 0.99 2.475 0.99 5 2 C5 2.33 5 2.66 5 3 C-0.27913453 5.08386889 -5.39538469 5.57910004 -11 6 C-11 4.68 -11 3.36 -11 2 C-10.67 2.66 -10.34 3.32 -10 4 C-8.081875 3.8453125 -8.081875 3.8453125 -6.125 3.6875 C-5.40570313 3.62949219 -4.68640625 3.57148438 -3.9453125 3.51171875 C-1.60480784 3.12606964 -1.60480784 3.12606964 0 0 Z " fill="#A4565F" transform="translate(205,202)"/>
<path d="M0 0 C0 3.44360632 -0.79591532 4.74795392 -2.5 7.6875 C-2.9640625 8.49574219 -3.428125 9.30398437 -3.90625 10.13671875 C-4.2671875 10.75160156 -4.628125 11.36648437 -5 12 C-5.80576116 9.67509679 -6.17106563 8.45649006 -5.29296875 6.11328125 C-2.22222222 1.11111111 -2.22222222 1.11111111 0 0 Z " fill="#FBDECB" transform="translate(30,71)"/>
<path d="M0 0 C4.99275057 1.27721526 7.57611908 3.17330957 11 7 C7.63596525 7 6.59907083 6.38119947 3.8125 4.625 C3.09707031 4.18414063 2.38164062 3.74328125 1.64453125 3.2890625 C1.10183594 2.86367188 0.55914062 2.43828125 0 2 C0 1.34 0 0.68 0 0 Z " fill="#F1DADD" transform="translate(235,17)"/>
<path d="M0 0 C0.33 0.66 0.66 1.32 1 2 C-2.625 6.875 -2.625 6.875 -6 8 C-4.55746343 4.63408134 -2.66735273 2.48952921 0 0 Z " fill="#E3E3E5" transform="translate(292,273)"/>
<path d="M0 0 C2.50037734 2.17424117 3.43628586 3.73045798 4 7 C3.01 7.33 2.02 7.66 1 8 C0.67 5.36 0.34 2.72 0 0 Z " fill="#6D529E" transform="translate(312,92)"/>
</svg>
